inDegrees=no
num_controls=7
num_derivatives=13
num_iterations=165
num_multipliers=7
num_parameters=0
num_slacks=7
num_states=26
objective=5.638456
objective_accelerations=0.600420
objective_balance=0.124602
objective_effort=0.400028
objective_height=4.451975
objective_ligament=0.061431
solver_duration=1876.032971
status=Solve_Succeeded
success=true
DataType=double
version=3
OpenSimVersion=4.4-2022-07-23-0e9fedc
endheader
time	/jointset/ground_pelvis/pelvis_tilt/value	/jointset/ground_pelvis/pelvis_tx/value	/jointset/ground_pelvis/pelvis_ty/value	/jointset/hip_l/hip_flexion_l/value	/jointset/hip_l/hip_adduction_l/value	/jointset/hip_l/hip_rotation_l/value	/jointset/back/lumbar_extension/value	/jointset/patellofemoral_l/patellar_flexion_l/value	/jointset/knee_l/knee_flexion_l/value	/jointset/knee_l/knee_adduction_l/value	/jointset/knee_l/knee_rotation_l/value	/jointset/ankle_l/ankle_angle_l/value	/jointset/subtalar_l/subtalar_angle_l/value	/jointset/ground_pelvis/pelvis_tilt/speed	/jointset/ground_pelvis/pelvis_tx/speed	/jointset/ground_pelvis/pelvis_ty/speed	/jointset/hip_l/hip_flexion_l/speed	/jointset/hip_l/hip_adduction_l/speed	/jointset/hip_l/hip_rotation_l/speed	/jointset/back/lumbar_extension/speed	/jointset/patellofemoral_l/patellar_flexion_l/speed	/jointset/knee_l/knee_flexion_l/speed	/jointset/knee_l/knee_adduction_l/speed	/jointset/knee_l/knee_rotation_l/speed	/jointset/ankle_l/ankle_angle_l/speed	/jointset/subtalar_l/subtalar_angle_l/speed	/forceset/tau_hip_flexion_l	/forceset/tau_hip_adduction_l	/forceset/tau_hip_rotation_l	/forceset/tau_knee_flexion_l	/forceset/tau_ankle_angle_l	/forceset/tau_subtalar_angle_l	/forceset/tau_lumbar_extension	lambda_cid13_p0	lambda_cid13_p1	lambda_cid13_p2	lambda_cid13_p3	lambda_cid13_p4	lambda_cid13_p5	lambda_cid14_p0	/jointset/ground_pelvis/pelvis_tilt/accel	/jointset/ground_pelvis/pelvis_tx/accel	/jointset/ground_pelvis/pelvis_ty/accel	/jointset/hip_l/hip_flexion_l/accel	/jointset/hip_l/hip_adduction_l/accel	/jointset/hip_l/hip_rotation_l/accel	/jointset/back/lumbar_extension/accel	/jointset/patellofemoral_l/patellar_flexion_l/accel	/jointset/knee_l/knee_flexion_l/accel	/jointset/knee_l/knee_adduction_l/accel	/jointset/knee_l/knee_rotation_l/accel	/jointset/ankle_l/ankle_angle_l/accel	/jointset/subtalar_l/subtalar_angle_l/accel	gamma_cid13_p0	gamma_cid13_p1	gamma_cid13_p2	gamma_cid13_p3	gamma_cid13_p4	gamma_cid13_p5	gamma_cid14_p0
1.5	-0.4020883423407162	-0.03276030762702875	0.7743736070871943	1.184118758507715	-0.3073800052471837	-0.02893695609174532	-0.3371199504248859	0.727793715865273	0.7277937158653003	-0.171752760247002	0.1745310279161385	0.1190905422891412	-0.0303714902728644	0.6076595717954689	0.1757293818791288	0.4547271353189701	-2.127939030103047	0.01419892604693535	-0.6535560477507367	0.575920386666481	-1.850308534198398	-1.850308534198412	0.009225390477732352	2.830599373524244e-06	-0.4414920834304435	-0.05271196810673007	-0.2288210375408271	0.03028090947717863	-0.02116729205241989	-0.1995369503486315	0.06905187761074695	0.04452251601347813	0.2117907217045336	-16.0655119717357	-19.78396309585691	6.476291313708165	0.9645110051366268	-609.2885991542737	-57.20397023682536	-26.0360875377878	0.5312801860443003	0.5044929441471134	-0.3228329213790128	-1.358625458911801	0.6107539420718427	-0.3897682941230491	1.603662598268935	-1.169074412768836	-1.169074412768845	0.01156340434907507	-0.00525479888040783	-0.3301957132405489	0.6027322879372219	3.560033804520821e-07	9.083229726168129e-07	-1.747018020432191e-06	-1.252781600569256e-07	4.101887191511507e-07	4.048001284481945e-07	3.49711889110171e-07
1.51	-0.3959854337977897	-0.03097793649228012	0.7789038884324014	1.162773246893587	-0.3072087762928549	-0.03548987854248056	-0.3312820272462914	0.7092340132413359	0.7092340132413498	-0.171663606408277	0.1745310528746491	0.1146592275006141	-0.03087004834728994	0.6128379207061979	0.1807234587605647	0.4512379043756078	-2.140862698781609	0.0200619419940892	-0.6569342195286465	0.5915807965440112	-1.861369113989653	-1.861369113989644	0.008593492855576116	-6.169634904741526e-06	-0.4446960855261354	-0.04698437472889746	-0.2214705842445578	0.02934980940338716	-0.02109316514881635	-0.1983180844560781	0.07145834629694409	0.04394084098752604	0.2059863278948708	-15.09881434029249	-19.79119099688835	6.58091569617362	0.7161813069377568	-605.2657774460305	-57.52652480766915	-27.13008336248136	0.498525372203011	0.4936251660238047	-0.3755546256063871	-1.214091698008555	0.576526577058791	-0.2973399387204775	1.534712306231929	-1.035199483369196	-1.035199483365753	-0.1022908385146017	0.000448025484791587	-0.3042712332447221	0.5601433706432148	4.027426628351543e-07	9.770584748122784e-07	-1.955049449963367e-06	-1.480217124368886e-07	4.62723050444773e-07	4.716180694852821e-07	3.868982846659322e-07
1.52	-0.389833259140033	-0.02914627256754071	0.7833965601792168	1.141307527767537	-0.3069784269478502	-0.04207368237481339	-0.3252900035441743	0.6905715748752723	0.6905715748752751	-0.1715811164443741	0.1745308219630583	0.1101981189360279	-0.03131085638634978	0.6175127947615595	0.1855879398772829	0.447205215640582	-2.151980532487373	0.02602300418210789	-0.6597323240703781	0.6067404913710159	-1.870855682623524	-1.870855682623492	0.007892615512755037	-4.834342173050347e-05	-0.4474508386422758	-0.04116196103358723	-0.2141201309482859	0.02841870932959809	-0.02101903824518418	-0.1970992185635278	0.0738648149831416	0.04335916596157635	0.2001819340852098	-14.13303996214114	-19.80275555568257	6.691371186273863	0.4354492796548056	-601.287484509728	-57.93511050633114	-28.22042692307613	0.4305852149707887	0.4785737912035716	-0.4315244797117491	-0.9974584643520384	0.6303631902448087	-0.273754846887411	1.503519588163858	-0.8542721812921173	-0.8542721812921207	-0.002232539783896136	-0.01188950938991068	-0.2403459173302444	0.6216963514327465	3.907659777354898e-07	1.11795729612583e-06	-1.893668918746632e-06	-1.190685065363112e-07	4.625410014723992e-07	5.328554269419671e-07	3.897041793016649e-07
1.53	-0.3836368516456015	-0.02726666353367933	0.7878462157928876	1.119739795217504	-0.3066879346292684	-0.0486835815346758	-0.3191490110922312	0.6718224952535056	0.6718224952535268	-0.1715051935175755	0.1745307573344949	0.1057118416596427	-0.03169288251193351	0.621682300704437	0.1903058294927511	0.4426394629452061	-2.161257397256371	0.03207957544360064	-0.6621303611938255	0.6213601211148433	-1.878692265312903	-1.878692265312879	0.007259267630421415	1.516672504941526e-05	-0.4497299008446193	-0.03524012623888721	-0.2067123627514963	0.02723252667584119	-0.02092554995001362	-0.1959694690194159	0.07629249599997091	0.04266225836219984	0.194297367267278	-13.17081964579905	-19.76278541676324	6.792619059143104	0.2168190409086349	-597.3960891727143	-58.29660124586264	-29.29521811027069	0.3972061521267541	0.464192880084175	-0.4819920337958589	-0.8464726018165438	0.5939596079264351	-0.2049310050912249	1.426502982073824	-0.7082224355805784	-0.7082224355818491	-0.09863077820264839	0.01273180472499401	-0.2104574042251259	0.5778269142560322	3.164035771854183e-07	1.335529644002347e-06	-1.546038179235245e-06	-3.518749496266017e-08	4.063477984674053e-07	5.881634143444744e-07	3.559807917098678e-07
